<svg width="180" height="37" viewBox="0 0 180 37" fill="none" xmlns="http://www.w3.org/2000/svg">
<g filter="url(#filter0_d_97_30)">
<mask id="path-1-inside-1_97_30" fill="white">
<path d="M0.639205 28.0833L4.9858 1.90152H15.3153C17.2926 1.90152 18.9162 2.28079 20.1861 3.03931C21.4645 3.78931 22.3594 4.83334 22.8707 6.17141C23.3906 7.50096 23.5099 9.03505 23.2287 10.7737C22.9389 12.5208 22.3082 14.0592 21.3366 15.3887C20.3736 16.7098 19.1207 17.741 17.5781 18.4825C16.0355 19.224 14.2543 19.5947 12.2344 19.5947H5.65057L6.37926 15.1586H12.0682C13.142 15.1586 14.0582 14.9754 14.8168 14.6089C15.5838 14.2339 16.1932 13.7183 16.6449 13.062C17.0966 12.3973 17.3906 11.6345 17.527 10.7737C17.6719 9.89584 17.625 9.13306 17.3864 8.48533C17.1477 7.8376 16.7088 7.33476 16.0696 6.97681C15.4389 6.61033 14.5909 6.42709 13.5256 6.42709H9.79261L6.17472 28.0833H0.639205ZM32.4268 28.4669C30.4155 28.4669 28.7493 28.0578 27.4283 27.2396C26.1072 26.4129 25.1783 25.2453 24.6413 23.7368C24.1129 22.2197 24.0234 20.4257 24.3729 18.3546C24.7138 16.3348 25.3999 14.562 26.4311 13.0365C27.4709 11.5109 28.7749 10.322 30.343 9.46971C31.9112 8.61743 33.6584 8.1913 35.5845 8.1913C36.88 8.1913 38.0518 8.4001 39.1001 8.81772C40.157 9.22681 41.0348 9.84897 41.7337 10.6842C42.4325 11.5109 42.9098 12.5464 43.1655 13.7907C43.4297 15.035 43.4254 16.4924 43.1527 18.1629L42.9098 19.6586H26.3416L26.8658 16.2836H38.3203C38.4482 15.4995 38.397 14.8049 38.1669 14.1998C37.9368 13.5947 37.5533 13.1217 37.0163 12.7808C36.4794 12.4314 35.8189 12.2566 35.0348 12.2566C34.2337 12.2566 33.4837 12.4527 32.7848 12.8447C32.0859 13.2368 31.4979 13.7524 31.0206 14.3916C30.5518 15.0223 30.2493 15.7083 30.1129 16.4498L29.5121 19.7993C29.3416 20.8305 29.3757 21.687 29.6143 22.3689C29.8615 23.0507 30.2876 23.562 30.8928 23.9029C31.4979 24.2353 32.2649 24.4015 33.1939 24.4015C33.799 24.4015 34.3658 24.3163 34.8942 24.1458C35.4311 23.9754 35.9084 23.724 36.326 23.3916C36.7436 23.0507 37.0845 22.6288 37.3487 22.126L42.3217 22.4583C41.8615 23.6686 41.1626 24.7254 40.2251 25.6288C39.2876 26.5237 38.1584 27.2225 36.8374 27.7254C35.5249 28.2197 34.0547 28.4669 32.4268 28.4669ZM45.0799 28.0833L48.3526 8.44698H53.6325L53.0572 11.8731H53.2617C53.8242 10.6544 54.5785 9.73391 55.5245 9.11175C56.479 8.48107 57.506 8.16573 58.6055 8.16573C58.8782 8.16573 59.1637 8.18277 59.462 8.21687C59.7688 8.24243 60.0415 8.28505 60.2802 8.34471L59.462 13.1899C59.2234 13.1046 58.8825 13.0365 58.4393 12.9853C58.0046 12.9257 57.5913 12.8958 57.1992 12.8958C56.4066 12.8958 55.6694 13.0706 54.9876 13.42C54.3058 13.7609 53.7305 14.2382 53.2617 14.8518C52.8015 15.4654 52.4989 16.1728 52.354 16.974L50.5259 28.0833H45.0799ZM74.6399 8.44698L73.9624 12.5379H61.843L62.5206 8.44698H74.6399ZM62.0092 28.0833L65.5249 7.02794C65.755 5.60465 66.2237 4.42425 66.9311 3.48675C67.647 2.54925 68.5291 1.84613 69.5774 1.37738C70.6342 0.908626 71.7763 0.674251 73.0036 0.674251C73.8388 0.674251 74.593 0.738172 75.2663 0.866014C75.9482 0.993854 76.4425 1.10891 76.7493 1.21118L75.1257 5.30209C74.9212 5.23391 74.6697 5.16999 74.3714 5.11033C74.0732 5.05067 73.7578 5.02084 73.4254 5.02084C72.6328 5.02084 72.049 5.20834 71.674 5.58334C71.3075 5.94982 71.0604 6.46545 70.9325 7.13022L67.4425 28.0833H62.0092ZM82.8761 28.4669C80.8647 28.4669 79.1985 28.0578 77.8775 27.2396C76.5565 26.4129 75.6275 25.2453 75.0906 23.7368C74.5621 22.2197 74.4727 20.4257 74.8221 18.3546C75.163 16.3348 75.8491 14.562 76.8803 13.0365C77.9201 11.5109 79.2241 10.322 80.7923 9.46971C82.3604 8.61743 84.1076 8.1913 86.0337 8.1913C87.3292 8.1913 88.5011 8.4001 89.5494 8.81772C90.6062 9.22681 91.484 9.84897 92.1829 10.6842C92.8817 11.5109 93.359 12.5464 93.6147 13.7907C93.8789 15.035 93.8746 16.4924 93.6019 18.1629L93.359 19.6586H76.7908L77.315 16.2836H88.7695C88.8974 15.4995 88.8462 14.8049 88.6161 14.1998C88.386 13.5947 88.0025 13.1217 87.4656 12.7808C86.9286 12.4314 86.2681 12.2566 85.484 12.2566C84.6829 12.2566 83.9329 12.4527 83.234 12.8447C82.5352 13.2368 81.9471 13.7524 81.4698 14.3916C81.0011 15.0223 80.6985 15.7083 80.5621 16.4498L79.9613 19.7993C79.7908 20.8305 79.8249 21.687 80.0636 22.3689C80.3107 23.0507 80.7369 23.562 81.342 23.9029C81.9471 24.2353 82.7141 24.4015 83.6431 24.4015C84.2482 24.4015 84.815 24.3163 85.3434 24.1458C85.8803 23.9754 86.3576 23.724 86.7752 23.3916C87.1928 23.0507 87.5337 22.6288 87.7979 22.126L92.771 22.4583C92.3107 23.6686 91.6119 24.7254 90.6744 25.6288C89.7369 26.5237 88.6076 27.2225 87.2866 27.7254C85.9741 28.2197 84.5039 28.4669 82.8761 28.4669ZM104.35 28.4669C102.33 28.4669 100.668 28.0407 99.3643 27.1885C98.0689 26.3277 97.1612 25.1345 96.6413 23.6089C96.13 22.0833 96.0405 20.3277 96.3729 18.3419C96.6967 16.3305 97.3743 14.5663 98.4055 13.0493C99.4368 11.5237 100.745 10.3348 102.33 9.48249C103.924 8.6217 105.714 8.1913 107.7 8.1913C109.413 8.1913 110.862 8.50238 112.046 9.12454C113.231 9.74669 114.1 10.6203 114.654 11.7453C115.208 12.8703 115.396 14.1913 115.217 15.7083H110.09C110.099 14.7368 109.847 13.9484 109.336 13.3433C108.825 12.7382 108.075 12.4356 107.086 12.4356C106.234 12.4356 105.45 12.6657 104.734 13.126C104.026 13.5777 103.425 14.2382 102.931 15.1075C102.445 15.9768 102.104 17.0294 101.908 18.2652C101.704 19.518 101.7 20.5833 101.896 21.4612C102.092 22.339 102.467 23.0081 103.021 23.4683C103.575 23.9285 104.273 24.1586 105.117 24.1586C105.748 24.1586 106.332 24.0308 106.869 23.7751C107.414 23.5194 107.891 23.1487 108.3 22.6629C108.71 22.1686 109.025 21.5762 109.246 20.8859H114.386C114.036 22.3944 113.401 23.7154 112.481 24.849C111.569 25.9825 110.423 26.8689 109.042 27.5081C107.661 28.1473 106.097 28.4669 104.35 28.4669ZM130.375 8.44698L129.698 12.5379H117.86L118.55 8.44698H130.375ZM122.002 3.74243H127.448L124.405 22.0493C124.32 22.5521 124.333 22.9441 124.444 23.2254C124.554 23.4981 124.738 23.6899 124.993 23.8007C125.257 23.9115 125.573 23.9669 125.939 23.9669C126.195 23.9669 126.455 23.9456 126.719 23.9029C126.983 23.8518 127.184 23.8135 127.32 23.7879L127.525 27.8404C127.218 27.9342 126.804 28.0365 126.284 28.1473C125.773 28.2581 125.168 28.3262 124.469 28.3518C123.14 28.4029 122.015 28.2282 121.094 27.8277C120.174 27.4186 119.513 26.7922 119.113 25.9484C118.712 25.1047 118.627 24.0436 118.857 22.7652L122.002 3.74243ZM131.174 28.0833L135.521 1.90152H152.856L152.089 6.46544H140.289L139.267 12.7041H149.916L149.149 17.268H138.5L136.71 28.0833H131.174ZM152.131 28.0833L155.403 8.44698H160.849L157.577 28.0833H152.131ZM158.689 5.89016C157.879 5.89016 157.21 5.62169 156.682 5.08476C156.162 4.53931 155.949 3.89158 156.043 3.14158C156.136 2.37454 156.503 1.72681 157.142 1.1984C157.781 0.661467 158.506 0.393001 159.315 0.393001C160.125 0.393001 160.786 0.661467 161.297 1.1984C161.808 1.72681 162.021 2.37454 161.936 3.14158C161.851 3.89158 161.489 4.53931 160.849 5.08476C160.219 5.62169 159.499 5.89016 158.689 5.89016ZM175.657 8.44698L174.979 12.5379H163.141L163.831 8.44698H175.657ZM167.283 3.74243H172.729L169.686 22.0493C169.601 22.5521 169.614 22.9441 169.725 23.2254C169.836 23.4981 170.019 23.6899 170.275 23.8007C170.539 23.9115 170.854 23.9669 171.221 23.9669C171.476 23.9669 171.736 23.9456 172 23.9029C172.265 23.8518 172.465 23.8135 172.601 23.7879L172.806 27.8404C172.499 27.9342 172.086 28.0365 171.566 28.1473C171.054 28.2581 170.449 28.3262 169.75 28.3518C168.421 28.4029 167.296 28.2282 166.375 27.8277C165.455 27.4186 164.794 26.7922 164.394 25.9484C163.993 25.1047 163.908 24.0436 164.138 22.7652L167.283 3.74243Z"/>
</mask>
<path d="M0.639205 28.0833L4.9858 1.90152H15.3153C17.2926 1.90152 18.9162 2.28079 20.1861 3.03931C21.4645 3.78931 22.3594 4.83334 22.8707 6.17141C23.3906 7.50096 23.5099 9.03505 23.2287 10.7737C22.9389 12.5208 22.3082 14.0592 21.3366 15.3887C20.3736 16.7098 19.1207 17.741 17.5781 18.4825C16.0355 19.224 14.2543 19.5947 12.2344 19.5947H5.65057L6.37926 15.1586H12.0682C13.142 15.1586 14.0582 14.9754 14.8168 14.6089C15.5838 14.2339 16.1932 13.7183 16.6449 13.062C17.0966 12.3973 17.3906 11.6345 17.527 10.7737C17.6719 9.89584 17.625 9.13306 17.3864 8.48533C17.1477 7.8376 16.7088 7.33476 16.0696 6.97681C15.4389 6.61033 14.5909 6.42709 13.5256 6.42709H9.79261L6.17472 28.0833H0.639205ZM32.4268 28.4669C30.4155 28.4669 28.7493 28.0578 27.4283 27.2396C26.1072 26.4129 25.1783 25.2453 24.6413 23.7368C24.1129 22.2197 24.0234 20.4257 24.3729 18.3546C24.7138 16.3348 25.3999 14.562 26.4311 13.0365C27.4709 11.5109 28.7749 10.322 30.343 9.46971C31.9112 8.61743 33.6584 8.1913 35.5845 8.1913C36.88 8.1913 38.0518 8.4001 39.1001 8.81772C40.157 9.22681 41.0348 9.84897 41.7337 10.6842C42.4325 11.5109 42.9098 12.5464 43.1655 13.7907C43.4297 15.035 43.4254 16.4924 43.1527 18.1629L42.9098 19.6586H26.3416L26.8658 16.2836H38.3203C38.4482 15.4995 38.397 14.8049 38.1669 14.1998C37.9368 13.5947 37.5533 13.1217 37.0163 12.7808C36.4794 12.4314 35.8189 12.2566 35.0348 12.2566C34.2337 12.2566 33.4837 12.4527 32.7848 12.8447C32.0859 13.2368 31.4979 13.7524 31.0206 14.3916C30.5518 15.0223 30.2493 15.7083 30.1129 16.4498L29.5121 19.7993C29.3416 20.8305 29.3757 21.687 29.6143 22.3689C29.8615 23.0507 30.2876 23.562 30.8928 23.9029C31.4979 24.2353 32.2649 24.4015 33.1939 24.4015C33.799 24.4015 34.3658 24.3163 34.8942 24.1458C35.4311 23.9754 35.9084 23.724 36.326 23.3916C36.7436 23.0507 37.0845 22.6288 37.3487 22.126L42.3217 22.4583C41.8615 23.6686 41.1626 24.7254 40.2251 25.6288C39.2876 26.5237 38.1584 27.2225 36.8374 27.7254C35.5249 28.2197 34.0547 28.4669 32.4268 28.4669ZM45.0799 28.0833L48.3526 8.44698H53.6325L53.0572 11.8731H53.2617C53.8242 10.6544 54.5785 9.73391 55.5245 9.11175C56.479 8.48107 57.506 8.16573 58.6055 8.16573C58.8782 8.16573 59.1637 8.18277 59.462 8.21687C59.7688 8.24243 60.0415 8.28505 60.2802 8.34471L59.462 13.1899C59.2234 13.1046 58.8825 13.0365 58.4393 12.9853C58.0046 12.9257 57.5913 12.8958 57.1992 12.8958C56.4066 12.8958 55.6694 13.0706 54.9876 13.42C54.3058 13.7609 53.7305 14.2382 53.2617 14.8518C52.8015 15.4654 52.4989 16.1728 52.354 16.974L50.5259 28.0833H45.0799ZM74.6399 8.44698L73.9624 12.5379H61.843L62.5206 8.44698H74.6399ZM62.0092 28.0833L65.5249 7.02794C65.755 5.60465 66.2237 4.42425 66.9311 3.48675C67.647 2.54925 68.5291 1.84613 69.5774 1.37738C70.6342 0.908626 71.7763 0.674251 73.0036 0.674251C73.8388 0.674251 74.593 0.738172 75.2663 0.866014C75.9482 0.993854 76.4425 1.10891 76.7493 1.21118L75.1257 5.30209C74.9212 5.23391 74.6697 5.16999 74.3714 5.11033C74.0732 5.05067 73.7578 5.02084 73.4254 5.02084C72.6328 5.02084 72.049 5.20834 71.674 5.58334C71.3075 5.94982 71.0604 6.46545 70.9325 7.13022L67.4425 28.0833H62.0092ZM82.8761 28.4669C80.8647 28.4669 79.1985 28.0578 77.8775 27.2396C76.5565 26.4129 75.6275 25.2453 75.0906 23.7368C74.5621 22.2197 74.4727 20.4257 74.8221 18.3546C75.163 16.3348 75.8491 14.562 76.8803 13.0365C77.9201 11.5109 79.2241 10.322 80.7923 9.46971C82.3604 8.61743 84.1076 8.1913 86.0337 8.1913C87.3292 8.1913 88.5011 8.4001 89.5494 8.81772C90.6062 9.22681 91.484 9.84897 92.1829 10.6842C92.8817 11.5109 93.359 12.5464 93.6147 13.7907C93.8789 15.035 93.8746 16.4924 93.6019 18.1629L93.359 19.6586H76.7908L77.315 16.2836H88.7695C88.8974 15.4995 88.8462 14.8049 88.6161 14.1998C88.386 13.5947 88.0025 13.1217 87.4656 12.7808C86.9286 12.4314 86.2681 12.2566 85.484 12.2566C84.6829 12.2566 83.9329 12.4527 83.234 12.8447C82.5352 13.2368 81.9471 13.7524 81.4698 14.3916C81.0011 15.0223 80.6985 15.7083 80.5621 16.4498L79.9613 19.7993C79.7908 20.8305 79.8249 21.687 80.0636 22.3689C80.3107 23.0507 80.7369 23.562 81.342 23.9029C81.9471 24.2353 82.7141 24.4015 83.6431 24.4015C84.2482 24.4015 84.815 24.3163 85.3434 24.1458C85.8803 23.9754 86.3576 23.724 86.7752 23.3916C87.1928 23.0507 87.5337 22.6288 87.7979 22.126L92.771 22.4583C92.3107 23.6686 91.6119 24.7254 90.6744 25.6288C89.7369 26.5237 88.6076 27.2225 87.2866 27.7254C85.9741 28.2197 84.5039 28.4669 82.8761 28.4669ZM104.35 28.4669C102.33 28.4669 100.668 28.0407 99.3643 27.1885C98.0689 26.3277 97.1612 25.1345 96.6413 23.6089C96.13 22.0833 96.0405 20.3277 96.3729 18.3419C96.6967 16.3305 97.3743 14.5663 98.4055 13.0493C99.4368 11.5237 100.745 10.3348 102.33 9.48249C103.924 8.6217 105.714 8.1913 107.7 8.1913C109.413 8.1913 110.862 8.50238 112.046 9.12454C113.231 9.74669 114.1 10.6203 114.654 11.7453C115.208 12.8703 115.396 14.1913 115.217 15.7083H110.09C110.099 14.7368 109.847 13.9484 109.336 13.3433C108.825 12.7382 108.075 12.4356 107.086 12.4356C106.234 12.4356 105.45 12.6657 104.734 13.126C104.026 13.5777 103.425 14.2382 102.931 15.1075C102.445 15.9768 102.104 17.0294 101.908 18.2652C101.704 19.518 101.7 20.5833 101.896 21.4612C102.092 22.339 102.467 23.0081 103.021 23.4683C103.575 23.9285 104.273 24.1586 105.117 24.1586C105.748 24.1586 106.332 24.0308 106.869 23.7751C107.414 23.5194 107.891 23.1487 108.3 22.6629C108.71 22.1686 109.025 21.5762 109.246 20.8859H114.386C114.036 22.3944 113.401 23.7154 112.481 24.849C111.569 25.9825 110.423 26.8689 109.042 27.5081C107.661 28.1473 106.097 28.4669 104.35 28.4669ZM130.375 8.44698L129.698 12.5379H117.86L118.55 8.44698H130.375ZM122.002 3.74243H127.448L124.405 22.0493C124.32 22.5521 124.333 22.9441 124.444 23.2254C124.554 23.4981 124.738 23.6899 124.993 23.8007C125.257 23.9115 125.573 23.9669 125.939 23.9669C126.195 23.9669 126.455 23.9456 126.719 23.9029C126.983 23.8518 127.184 23.8135 127.32 23.7879L127.525 27.8404C127.218 27.9342 126.804 28.0365 126.284 28.1473C125.773 28.2581 125.168 28.3262 124.469 28.3518C123.14 28.4029 122.015 28.2282 121.094 27.8277C120.174 27.4186 119.513 26.7922 119.113 25.9484C118.712 25.1047 118.627 24.0436 118.857 22.7652L122.002 3.74243ZM131.174 28.0833L135.521 1.90152H152.856L152.089 6.46544H140.289L139.267 12.7041H149.916L149.149 17.268H138.5L136.71 28.0833H131.174ZM152.131 28.0833L155.403 8.44698H160.849L157.577 28.0833H152.131ZM158.689 5.89016C157.879 5.89016 157.21 5.62169 156.682 5.08476C156.162 4.53931 155.949 3.89158 156.043 3.14158C156.136 2.37454 156.503 1.72681 157.142 1.1984C157.781 0.661467 158.506 0.393001 159.315 0.393001C160.125 0.393001 160.786 0.661467 161.297 1.1984C161.808 1.72681 162.021 2.37454 161.936 3.14158C161.851 3.89158 161.489 4.53931 160.849 5.08476C160.219 5.62169 159.499 5.89016 158.689 5.89016ZM175.657 8.44698L174.979 12.5379H163.141L163.831 8.44698H175.657ZM167.283 3.74243H172.729L169.686 22.0493C169.601 22.5521 169.614 22.9441 169.725 23.2254C169.836 23.4981 170.019 23.6899 170.275 23.8007C170.539 23.9115 170.854 23.9669 171.221 23.9669C171.476 23.9669 171.736 23.9456 172 23.9029C172.265 23.8518 172.465 23.8135 172.601 23.7879L172.806 27.8404C172.499 27.9342 172.086 28.0365 171.566 28.1473C171.054 28.2581 170.449 28.3262 169.75 28.3518C168.421 28.4029 167.296 28.2282 166.375 27.8277C165.455 27.4186 164.794 26.7922 164.394 25.9484C163.993 25.1047 163.908 24.0436 164.138 22.7652L167.283 3.74243Z" fill="#2B7FFF"/>
<path d="M0.639205 28.0833L-0.347293 27.9196L-0.540498 29.0833H0.639205V28.0833ZM4.9858 1.90152V0.901525H4.13812L3.9993 1.73775L4.9858 1.90152ZM20.1861 3.03931L19.6733 3.89784L19.6801 3.90183L20.1861 3.03931ZM22.8707 6.17141L21.9366 6.52841L21.9394 6.53558L22.8707 6.17141ZM23.2287 10.7737L24.2152 10.9373L24.2159 10.9334L23.2287 10.7737ZM21.3366 15.3887L20.5293 14.7987L20.5286 14.7996L21.3366 15.3887ZM17.5781 18.4825L18.0113 19.3838L18.0113 19.3838L17.5781 18.4825ZM5.65057 19.5947L4.66379 19.4326L4.4729 20.5947H5.65057V19.5947ZM6.37926 15.1586V14.1586H5.53012L5.39249 14.9965L6.37926 15.1586ZM14.8168 14.6089L15.2518 15.5093L15.256 15.5073L14.8168 14.6089ZM16.6449 13.062L17.4686 13.629L17.472 13.6241L16.6449 13.062ZM17.527 10.7737L16.5403 10.6108L16.5393 10.6172L17.527 10.7737ZM17.3864 8.48533L18.3247 8.13963L18.3247 8.13962L17.3864 8.48533ZM16.0696 6.97681L15.5672 7.84143L15.5741 7.84543L15.581 7.84932L16.0696 6.97681ZM9.79261 6.42709V5.42709H8.94582L8.80628 6.26232L9.79261 6.42709ZM6.17472 28.0833V29.0833H7.02151L7.16105 28.2481L6.17472 28.0833ZM1.6257 28.2471L5.97229 2.0653L3.9993 1.73775L-0.347293 27.9196L1.6257 28.2471ZM4.9858 2.90152H15.3153V0.901525H4.9858V2.90152ZM15.3153 2.90152C17.171 2.90152 18.6022 3.25804 19.6733 3.89782L20.6989 2.1808C19.2302 1.30353 17.4143 0.901525 15.3153 0.901525V2.90152ZM19.6801 3.90183C20.7698 4.54117 21.5094 5.41042 21.9366 6.5284L23.8048 5.81443C23.2094 4.25626 22.1591 3.03745 20.6921 2.17678L19.6801 3.90183ZM21.9394 6.53558C22.3806 7.6638 22.5009 9.01083 22.2415 10.614L24.2159 10.9334C24.519 9.05927 24.4007 7.33811 23.8021 5.80724L21.9394 6.53558ZM22.2422 10.6101C21.976 12.2149 21.4018 13.6048 20.5293 14.7987L22.144 15.9788C23.2147 14.5136 23.9018 12.8267 24.2152 10.9373L22.2422 10.6101ZM20.5286 14.7996C19.6674 15.9809 18.5459 16.9078 17.1449 17.5812L18.0113 19.3838C19.6955 18.5743 21.0798 17.4386 22.1447 15.9778L20.5286 14.7996ZM17.1449 17.5812C15.7597 18.247 14.1311 18.5947 12.2344 18.5947V20.5947C14.3774 20.5947 16.3113 20.2009 18.0113 19.3838L17.1449 17.5812ZM12.2344 18.5947H5.65057V20.5947H12.2344V18.5947ZM6.63734 19.7568L7.36604 15.3207L5.39249 14.9965L4.66379 19.4326L6.63734 19.7568ZM6.37926 16.1586H12.0682V14.1586H6.37926V16.1586ZM12.0682 16.1586C13.2526 16.1586 14.3256 15.9568 15.2518 15.5093L14.3817 13.7085C13.7908 13.994 13.0315 14.1586 12.0682 14.1586V16.1586ZM15.256 15.5073C16.1661 15.0623 16.9124 14.4371 17.4686 13.629L15.8212 12.4951C15.474 12.9995 15.0015 13.4055 14.3776 13.7105L15.256 15.5073ZM17.472 13.6241C18.0132 12.8275 18.3573 11.9238 18.5147 10.9301L16.5393 10.6172C16.424 11.3451 16.18 11.967 15.8178 12.5L17.472 13.6241ZM18.5136 10.9365C18.6788 9.93606 18.6381 8.99023 18.3247 8.13963L16.448 8.83104C16.6119 9.27588 16.665 9.85563 16.5403 10.6108L18.5136 10.9365ZM18.3247 8.13962C17.9984 7.2539 17.3915 6.57093 16.5582 6.1043L15.581 7.84932C16.0261 8.09859 16.2971 8.42131 16.448 8.83104L18.3247 8.13962ZM16.572 6.11218C15.7342 5.62536 14.6913 5.42709 13.5256 5.42709V7.42709C14.4905 7.42709 15.1436 7.5953 15.5672 7.84143L16.572 6.11218ZM13.5256 5.42709H9.79261V7.42709H13.5256V5.42709ZM8.80628 6.26232L5.18839 27.9186L7.16105 28.2481L10.7789 6.59187L8.80628 6.26232ZM6.17472 27.0833H0.639205V29.0833H6.17472V27.0833ZM27.4283 27.2396L26.8978 28.0873L26.9017 28.0897L27.4283 27.2396ZM24.6413 23.7368L23.697 24.0657L23.6992 24.0721L24.6413 23.7368ZM24.3729 18.3546L23.3868 18.1882L23.3868 18.1883L24.3729 18.3546ZM26.4311 13.0365L25.6048 12.4733L25.6026 12.4764L26.4311 13.0365ZM30.343 9.46971L29.8655 8.59108L29.8655 8.59108L30.343 9.46971ZM39.1001 8.81772L38.73 9.74676L38.7391 9.75029L39.1001 8.81772ZM41.7337 10.6842L40.9667 11.3259L40.97 11.3298L41.7337 10.6842ZM43.1655 13.7907L42.1859 13.992L42.1873 13.9984L43.1655 13.7907ZM43.1527 18.1629L42.1658 18.0018L42.1656 18.0026L43.1527 18.1629ZM42.9098 19.6586V20.6586H43.7605L43.8969 19.8189L42.9098 19.6586ZM26.3416 19.6586L25.3535 19.5052L25.1743 20.6586H26.3416V19.6586ZM26.8658 16.2836V15.2836H26.0091L25.8776 16.1302L26.8658 16.2836ZM38.3203 16.2836V17.2836H39.1705L39.3073 16.4445L38.3203 16.2836ZM38.1669 14.1998L37.2322 14.5553L37.2322 14.5553L38.1669 14.1998ZM37.0163 12.7808L36.4708 13.619L36.4803 13.625L37.0163 12.7808ZM32.7848 12.8447L33.2741 13.7168L33.2741 13.7168L32.7848 12.8447ZM31.0206 14.3916L30.2193 13.7933L30.218 13.7951L31.0206 14.3916ZM30.1129 16.4498L29.1294 16.2689L29.1286 16.2733L30.1129 16.4498ZM29.5121 19.7993L28.5277 19.6227L28.5255 19.6362L29.5121 19.7993ZM29.6143 22.3689L28.6704 22.6992L28.6742 22.7097L29.6143 22.3689ZM30.8928 23.9029L30.4019 24.7742L30.4113 24.7794L30.8928 23.9029ZM34.8942 24.1458L34.5916 23.1927L34.5872 23.1941L34.8942 24.1458ZM36.326 23.3916L36.9488 24.1741L36.9584 24.1662L36.326 23.3916ZM37.3487 22.126L37.4154 21.1282L36.7661 21.0848L36.4635 21.6608L37.3487 22.126ZM42.3217 22.4583L43.2564 22.8138L43.7368 21.5507L42.3884 21.4606L42.3217 22.4583ZM40.2251 25.6288L40.9156 26.3522L40.919 26.3489L40.2251 25.6288ZM36.8374 27.7254L37.1898 28.6612L37.1931 28.66L36.8374 27.7254ZM32.4268 27.4669C30.5477 27.4669 29.0774 27.0847 27.9548 26.3894L26.9017 28.0897C28.4212 29.0308 30.2833 29.4669 32.4268 29.4669V27.4669ZM27.9588 26.3919C26.8344 25.6882 26.0471 24.704 25.5834 23.4014L23.6992 24.0721C24.3095 25.7866 25.3801 27.1375 26.8978 28.0873L27.9588 26.3919ZM25.5857 23.4078C25.1271 22.0912 25.0292 20.4755 25.3589 18.521L23.3868 18.1883C23.0177 20.3758 23.0988 22.3482 23.697 24.0657L25.5857 23.4078ZM25.3589 18.5211C25.6787 16.6262 26.317 14.9909 27.2596 13.5965L25.6026 12.4764C24.4827 14.1331 23.7488 16.0433 23.3868 18.1882L25.3589 18.5211ZM27.2574 13.5997C28.2109 12.2008 29.397 11.122 30.8206 10.3483L29.8655 8.59108C28.1528 9.52193 26.7309 10.821 25.6048 12.4733L27.2574 13.5997ZM30.8206 10.3483C32.2307 9.58195 33.8116 9.1913 35.5845 9.1913V7.1913C33.5051 7.1913 31.5917 7.65292 29.8655 8.59108L30.8206 10.3483ZM35.5845 9.1913C36.7718 9.1913 37.8156 9.38242 38.7301 9.74672L39.4702 7.88872C38.2881 7.41779 36.9882 7.1913 35.5845 7.1913V9.1913ZM38.7391 9.75029C39.6449 10.1009 40.3809 10.6258 40.9667 11.3259L42.5006 10.0425C41.6887 9.07217 40.669 8.35272 39.4611 7.88515L38.7391 9.75029ZM40.97 11.3298C41.5435 12.0082 41.9581 12.883 42.1859 13.992L44.145 13.5895C43.8615 12.2098 43.3215 11.0136 42.4974 10.0386L40.97 11.3298ZM42.1873 13.9984C42.4188 15.0886 42.4247 16.4156 42.1658 18.0018L44.1396 18.324C44.4261 16.5693 44.4406 14.9815 44.1437 13.583L42.1873 13.9984ZM42.1656 18.0026L41.9227 19.4983L43.8969 19.8189L44.1398 18.3232L42.1656 18.0026ZM42.9098 18.6586H26.3416V20.6586H42.9098V18.6586ZM27.3298 19.8121L27.8539 16.4371L25.8776 16.1302L25.3535 19.5052L27.3298 19.8121ZM26.8658 17.2836H38.3203V15.2836H26.8658V17.2836ZM39.3073 16.4445C39.457 15.526 39.407 14.6476 39.1016 13.8444L37.2322 14.5553C37.387 14.9623 37.4393 15.4731 37.3333 16.1227L39.3073 16.4445ZM39.1016 13.8444C38.7963 13.0415 38.2749 12.3953 37.5523 11.9366L36.4803 13.625C36.8316 13.8481 37.0773 14.1479 37.2322 14.5553L39.1016 13.8444ZM37.5618 11.9426C36.8295 11.4661 35.9689 11.2566 35.0348 11.2566V13.2566C35.6689 13.2566 36.1293 13.3966 36.4709 13.6189L37.5618 11.9426ZM35.0348 11.2566C34.0623 11.2566 33.1438 11.4967 32.2956 11.9726L33.2741 13.7168C33.8235 13.4086 34.4051 13.2566 35.0348 13.2566V11.2566ZM32.2956 11.9726C31.4752 12.4327 30.7807 13.0415 30.2193 13.7933L31.8219 14.9899C32.2151 14.4633 32.6966 14.0408 33.2741 13.7168L32.2956 11.9726ZM30.218 13.7951C29.6619 14.5433 29.2947 15.3705 29.1294 16.2689L31.0964 16.6307C31.2039 16.0462 31.4418 15.5013 31.8232 14.9881L30.218 13.7951ZM29.1286 16.2733L28.5278 19.6227L30.4964 19.9758L31.0972 16.6264L29.1286 16.2733ZM28.5255 19.6362C28.3391 20.7638 28.3572 21.8041 28.6705 22.6992L30.5582 22.0385C30.3942 21.57 30.3442 20.8972 30.4987 19.9623L28.5255 19.6362ZM28.6742 22.7097C28.999 23.6055 29.5786 24.3104 30.4019 24.7742L31.3836 23.0317C30.9967 22.8137 30.7241 22.4958 30.5545 22.0281L28.6742 22.7097ZM30.4113 24.7794C31.2062 25.216 32.1524 25.4015 33.1939 25.4015V23.4015C32.3774 23.4015 31.7896 23.2546 31.3742 23.0265L30.4113 24.7794ZM33.1939 25.4015C33.8939 25.4015 34.5651 25.3027 35.2012 25.0976L34.5872 23.1941C34.1665 23.3298 33.7041 23.4015 33.1939 23.4015V25.4015ZM35.1968 25.099C35.8434 24.8937 36.4305 24.5865 36.9487 24.174L35.7032 22.6092C35.3863 22.8615 35.0188 23.0571 34.5916 23.1927L35.1968 25.099ZM36.9584 24.1662C37.4858 23.7357 37.9106 23.2066 38.234 22.5911L36.4635 21.6608C36.2585 22.051 36.0014 22.3656 35.6936 22.6169L36.9584 24.1662ZM37.282 23.1237L42.255 23.4561L42.3884 21.4606L37.4154 21.1282L37.282 23.1237ZM41.387 22.1029C40.9795 23.1745 40.3632 24.107 39.5312 24.9087L40.919 26.3489C41.9621 25.3437 42.7435 24.1626 43.2564 22.8138L41.387 22.1029ZM39.5347 24.9054C38.702 25.7003 37.6895 26.331 36.4816 26.7908L37.1931 28.66C38.6273 28.1141 39.8733 27.3471 40.9156 26.3522L39.5347 24.9054ZM36.4849 26.7896C35.3016 27.2352 33.9533 27.4669 32.4268 27.4669V29.4669C34.156 29.4669 35.7481 29.2042 37.1898 28.6612L36.4849 26.7896ZM45.0799 28.0833L44.0935 27.9189L43.8994 29.0833H45.0799V28.0833ZM48.3526 8.44698V7.44698H47.5055L47.3662 8.28258L48.3526 8.44698ZM53.6325 8.44698L54.6187 8.61257L54.8144 7.44698H53.6325V8.44698ZM53.0572 11.8731L52.071 11.7075L51.8753 12.8731H53.0572V11.8731ZM53.2617 11.8731V12.8731H53.9016L54.1697 12.2922L53.2617 11.8731ZM55.5245 9.11175L56.074 9.94726L56.0758 9.94609L55.5245 9.11175ZM59.462 8.21687L59.3485 9.2104L59.3637 9.21214L59.379 9.21341L59.462 8.21687ZM60.2802 8.34471L61.2662 8.51121L61.4203 7.59895L60.5227 7.37456L60.2802 8.34471ZM59.462 13.1899L59.1257 14.1316L60.2494 14.5329L60.448 13.3564L59.462 13.1899ZM58.4393 12.9853L58.3033 13.976L58.314 13.9775L58.3247 13.9787L58.4393 12.9853ZM54.9876 13.42L55.4348 14.3145L55.4437 14.3099L54.9876 13.42ZM53.2617 14.8518L52.467 14.2447L52.4617 14.2518L53.2617 14.8518ZM52.354 16.974L51.37 16.796L51.3686 16.8038L51.3673 16.8116L52.354 16.974ZM50.5259 28.0833V29.0833H51.3748L51.5127 28.2457L50.5259 28.0833ZM46.0663 28.2477L49.339 8.61138L47.3662 8.28258L44.0935 27.9189L46.0663 28.2477ZM48.3526 9.44698H53.6325V7.44698H48.3526V9.44698ZM52.6463 8.28139L52.071 11.7075L54.0434 12.0387L54.6187 8.61257L52.6463 8.28139ZM53.0572 12.8731H53.2617V10.8731H53.0572V12.8731ZM54.1697 12.2922C54.6686 11.2112 55.3109 10.4491 56.074 9.94726L54.975 8.27624C53.8461 9.01871 52.9798 10.0976 52.3538 11.4541L54.1697 12.2922ZM56.0758 9.94609C56.8738 9.41883 57.7103 9.16573 58.6055 9.16573V7.16573C57.3018 7.16573 56.0843 7.54331 54.9732 8.27742L56.0758 9.94609ZM58.6055 9.16573C58.8367 9.16573 59.0841 9.18019 59.3485 9.2104L59.5755 7.22333C59.2433 7.18536 58.9197 7.16573 58.6055 7.16573V9.16573ZM59.379 9.21341C59.6447 9.23556 59.8625 9.27106 60.0377 9.31485L60.5227 7.37456C60.2206 7.29904 59.8929 7.24931 59.5451 7.22032L59.379 9.21341ZM59.2941 8.1782L58.476 13.0234L60.448 13.3564L61.2662 8.51121L59.2941 8.1782ZM59.7983 12.2481C59.4536 12.125 59.0249 12.0463 58.5539 11.9919L58.3247 13.9787C58.7401 14.0267 58.9931 14.0843 59.1257 14.1316L59.7983 12.2481ZM58.5753 11.9946C58.1008 11.9295 57.6417 11.8958 57.1992 11.8958V13.8958C57.5408 13.8958 57.9085 13.9219 58.3033 13.976L58.5753 11.9946ZM57.1992 11.8958C56.2537 11.8958 55.3594 12.1057 54.5315 12.5301L55.4437 14.3099C55.9794 14.0354 56.5595 13.8958 57.1992 13.8958V11.8958ZM54.5404 12.5256C53.7205 12.9355 53.027 13.5118 52.467 14.2448L54.0564 15.4588C54.434 14.9646 54.891 14.5863 55.4348 14.3144L54.5404 12.5256ZM52.4617 14.2518C51.9024 14.9975 51.5408 15.8514 51.37 16.796L53.3381 17.1519C53.457 16.4942 53.7005 15.9334 54.0617 15.4518L52.4617 14.2518ZM51.3673 16.8116L49.5392 27.921L51.5127 28.2457L53.3408 17.1363L51.3673 16.8116ZM50.5259 27.0833H45.0799V29.0833H50.5259V27.0833ZM74.6399 8.44698L75.6265 8.61038L75.8192 7.44698H74.6399V8.44698ZM73.9624 12.5379V13.5379H74.8104L74.9489 12.7013L73.9624 12.5379ZM61.843 12.5379L60.8565 12.3745L60.6638 13.5379H61.843V12.5379ZM62.5206 8.44698V7.44698H61.6726L61.534 8.28358L62.5206 8.44698ZM62.0092 28.0833L61.0229 27.9187L60.8284 29.0833H62.0092V28.0833ZM65.5249 7.02794L66.5112 7.19264L66.512 7.18755L65.5249 7.02794ZM66.9311 3.48675L66.1363 2.87983L66.1329 2.88443L66.9311 3.48675ZM69.5774 1.37738L69.172 0.463256L69.1692 0.464485L69.5774 1.37738ZM75.2663 0.866014L75.0798 1.84846L75.082 1.84889L75.2663 0.866014ZM76.7493 1.21118L77.6788 1.58007L78.0689 0.596973L77.0655 0.262501L76.7493 1.21118ZM75.1257 5.30209L74.8095 6.25078L75.7064 6.54976L76.0552 5.67098L75.1257 5.30209ZM74.3714 5.11033L74.5676 4.12975L74.5676 4.12975L74.3714 5.11033ZM71.674 5.58334L72.3811 6.29045L72.3811 6.29045L71.674 5.58334ZM70.9325 7.13022L69.9505 6.94137L69.9482 6.95362L69.9461 6.96592L70.9325 7.13022ZM67.4425 28.0833V29.0833H68.2897L68.4289 28.2476L67.4425 28.0833ZM73.6534 8.28358L72.9758 12.3745L74.9489 12.7013L75.6265 8.61038L73.6534 8.28358ZM73.9624 11.5379H61.843V13.5379H73.9624V11.5379ZM62.8296 12.7013L63.5072 8.61038L61.534 8.28358L60.8565 12.3745L62.8296 12.7013ZM62.5206 9.44698H74.6399V7.44698H62.5206V9.44698ZM62.9956 28.248L66.5112 7.19264L64.5385 6.86325L61.0229 27.9187L62.9956 28.248ZM66.512 7.18755C66.722 5.8889 67.1399 4.87023 67.7294 4.08907L66.1329 2.88443C65.3075 3.97828 64.7879 5.3204 64.5377 6.86834L66.512 7.18755ZM67.7259 4.09366C68.3434 3.28506 69.094 2.68898 69.9856 2.29027L69.1692 0.464485C67.9643 1.00327 66.9507 1.81344 66.1363 2.87984L67.7259 4.09366ZM69.9829 2.29149C70.9043 1.88281 71.9072 1.67425 73.0036 1.67425V-0.325749C71.6454 -0.325749 70.3642 -0.0655604 69.172 0.463261L69.9829 2.29149ZM73.0036 1.67425C73.7892 1.67425 74.4796 1.7345 75.0798 1.84846L75.4529 -0.116433C74.7065 -0.258155 73.8883 -0.325749 73.0036 -0.325749V1.67425ZM75.082 1.84889C75.7578 1.97558 76.1952 2.08057 76.4331 2.15987L77.0655 0.262501C76.6898 0.13725 76.1386 0.0121274 75.4506 -0.116858L75.082 1.84889ZM75.8198 0.842299L74.1962 4.93321L76.0552 5.67098L77.6788 1.58007L75.8198 0.842299ZM75.4419 4.35341C75.1858 4.26802 74.8914 4.19453 74.5676 4.12975L74.1753 6.09091C74.4481 6.14546 74.6566 6.19981 74.8095 6.25078L75.4419 4.35341ZM74.5676 4.12975C74.1991 4.05605 73.8177 4.02084 73.4254 4.02084V6.02084C73.698 6.02084 73.9472 6.04529 74.1753 6.09091L74.5676 4.12975ZM73.4254 4.02084C72.4974 4.02084 71.6047 4.23844 70.9669 4.87624L72.3811 6.29045C72.4933 6.17824 72.7682 6.02084 73.4254 6.02084V4.02084ZM70.9669 4.87624C70.4216 5.42157 70.1047 6.13969 69.9505 6.94137L71.9145 7.31907C72.016 6.7912 72.1935 6.47807 72.3811 6.29045L70.9669 4.87624ZM69.9461 6.96592L66.4561 27.919L68.4289 28.2476L71.9189 7.29452L69.9461 6.96592ZM67.4425 27.0833H62.0092V29.0833H67.4425V27.0833ZM77.8775 27.2396L77.347 28.0873L77.3509 28.0897L77.8775 27.2396ZM75.0906 23.7368L74.1462 24.0657L74.1485 24.0721L75.0906 23.7368ZM74.8221 18.3546L73.836 18.1882L73.836 18.1883L74.8221 18.3546ZM76.8803 13.0365L76.054 12.4733L76.0519 12.4764L76.8803 13.0365ZM80.7923 9.46971L80.3147 8.59108L80.3147 8.59108L80.7923 9.46971ZM89.5494 8.81772L89.1793 9.74676L89.1884 9.75029L89.5494 8.81772ZM92.1829 10.6842L91.4159 11.3259L91.4192 11.3298L92.1829 10.6842ZM93.6147 13.7907L92.6351 13.992L92.6365 13.9984L93.6147 13.7907ZM93.6019 18.1629L92.615 18.0018L92.6148 18.0026L93.6019 18.1629ZM93.359 19.6586V20.6586H94.2097L94.3461 19.8189L93.359 19.6586ZM76.7908 19.6586L75.8027 19.5052L75.6235 20.6586H76.7908V19.6586ZM77.315 16.2836V15.2836H76.4583L76.3268 16.1302L77.315 16.2836ZM88.7695 16.2836V17.2836H89.6197L89.7565 16.4445L88.7695 16.2836ZM88.6161 14.1998L87.6814 14.5553L87.6814 14.5553L88.6161 14.1998ZM87.4656 12.7808L86.9201 13.619L86.9295 13.625L87.4656 12.7808ZM83.234 12.8447L83.7233 13.7168L83.7233 13.7168L83.234 12.8447ZM81.4698 14.3916L80.6685 13.7933L80.6672 13.7951L81.4698 14.3916ZM80.5621 16.4498L79.5786 16.2689L79.5779 16.2733L80.5621 16.4498ZM79.9613 19.7993L78.9769 19.6227L78.9747 19.6362L79.9613 19.7993ZM80.0636 22.3689L79.1196 22.6992L79.1234 22.7097L80.0636 22.3689ZM81.342 23.9029L80.8511 24.7742L80.8605 24.7794L81.342 23.9029ZM85.3434 24.1458L85.0408 23.1927L85.0364 23.1941L85.3434 24.1458ZM86.7752 23.3916L87.398 24.1741L87.4076 24.1662L86.7752 23.3916ZM87.7979 22.126L87.8646 21.1282L87.2154 21.0848L86.9127 21.6608L87.7979 22.126ZM92.771 22.4583L93.7056 22.8138L94.186 21.5507L92.8376 21.4606L92.771 22.4583ZM90.6744 25.6288L91.3648 26.3522L91.3683 26.3489L90.6744 25.6288ZM87.2866 27.7254L87.639 28.6612L87.6423 28.66L87.2866 27.7254ZM82.8761 27.4669C80.9969 27.4669 79.5266 27.0847 78.404 26.3894L77.3509 28.0897C78.8704 29.0308 80.7325 29.4669 82.8761 29.4669V27.4669ZM78.408 26.3919C77.2836 25.6882 76.4963 24.704 76.0327 23.4014L74.1485 24.0721C74.7587 25.7866 75.8294 27.1375 77.347 28.0873L78.408 26.3919ZM76.0349 23.4078C75.5763 22.0912 75.4784 20.4755 75.8082 18.521L73.836 18.1883C73.4669 20.3758 73.548 22.3482 74.1462 24.0657L76.0349 23.4078ZM75.8081 18.5211C76.128 16.6262 76.7662 14.9909 77.7088 13.5965L76.0519 12.4764C74.932 14.1331 74.198 16.0433 73.836 18.1882L75.8081 18.5211ZM77.7067 13.5997C78.6601 12.2008 79.8462 11.122 81.2698 10.3483L80.3147 8.59108C78.602 9.52193 77.1801 10.821 76.054 12.4733L77.7067 13.5997ZM81.2698 10.3483C82.6799 9.58195 84.2608 9.1913 86.0337 9.1913V7.1913C83.9544 7.1913 82.041 7.65292 80.3147 8.59108L81.2698 10.3483ZM86.0337 9.1913C87.221 9.1913 88.2648 9.38242 89.1793 9.74672L89.9194 7.88872C88.7373 7.41779 87.4374 7.1913 86.0337 7.1913V9.1913ZM89.1884 9.75029C90.0941 10.1009 90.8301 10.6258 91.4159 11.3259L92.9498 10.0425C92.1379 9.07217 91.1183 8.35272 89.9104 7.88515L89.1884 9.75029ZM91.4192 11.3298C91.9927 12.0082 92.4073 12.883 92.6352 13.992L94.5942 13.5895C94.3108 12.2098 93.7708 11.0136 92.9466 10.0386L91.4192 11.3298ZM92.6365 13.9984C92.868 15.0886 92.874 16.4156 92.615 18.0018L94.5889 18.324C94.8753 16.5693 94.8898 14.9815 94.5929 13.583L92.6365 13.9984ZM92.6148 18.0026L92.372 19.4983L94.3461 19.8189L94.589 18.3232L92.6148 18.0026ZM93.359 18.6586H76.7908V20.6586H93.359V18.6586ZM77.779 19.8121L78.3031 16.4371L76.3268 16.1302L75.8027 19.5052L77.779 19.8121ZM77.315 17.2836H88.7695V15.2836H77.315V17.2836ZM89.7565 16.4445C89.9063 15.526 89.8563 14.6476 89.5508 13.8444L87.6814 14.5553C87.8362 14.9623 87.8885 15.4731 87.7826 16.1227L89.7565 16.4445ZM89.5508 13.8444C89.2455 13.0415 88.7241 12.3953 88.0016 11.9366L86.9295 13.625C87.2809 13.8481 87.5265 14.1479 87.6814 14.5553L89.5508 13.8444ZM88.011 11.9426C87.2787 11.4661 86.4181 11.2566 85.484 11.2566V13.2566C86.1181 13.2566 86.5785 13.3966 86.9201 13.6189L88.011 11.9426ZM85.484 11.2566C84.5115 11.2566 83.593 11.4967 82.7448 11.9726L83.7233 13.7168C84.2727 13.4086 84.8543 13.2566 85.484 13.2566V11.2566ZM82.7448 11.9726C81.9245 12.4327 81.2299 13.0415 80.6685 13.7933L82.2711 14.9899C82.6643 14.4633 83.1459 14.0408 83.7233 13.7168L82.7448 11.9726ZM80.6672 13.7951C80.1111 14.5433 79.7439 15.3705 79.5786 16.2689L81.5457 16.6307C81.6531 16.0462 81.891 15.5013 82.2724 14.9881L80.6672 13.7951ZM79.5779 16.2733L78.977 19.6227L80.9456 19.9758L81.5464 16.6264L79.5779 16.2733ZM78.9747 19.6362C78.7883 20.7638 78.8064 21.8041 79.1197 22.6992L81.0074 22.0385C80.8435 21.57 80.7934 20.8972 80.9479 19.9623L78.9747 19.6362ZM79.1234 22.7097C79.4482 23.6055 80.0278 24.3104 80.8511 24.7742L81.8328 23.0317C81.4459 22.8137 81.1733 22.4958 81.0037 22.0281L79.1234 22.7097ZM80.8605 24.7794C81.6554 25.216 82.6016 25.4015 83.6431 25.4015V23.4015C82.8266 23.4015 82.2388 23.2546 81.8234 23.0265L80.8605 24.7794ZM83.6431 25.4015C84.3431 25.4015 85.0143 25.3027 85.6504 25.0976L85.0364 23.1941C84.6157 23.3298 84.1533 23.4015 83.6431 23.4015V25.4015ZM85.646 25.099C86.2926 24.8937 86.8797 24.5865 87.398 24.174L86.1525 22.6092C85.8355 22.8615 85.468 23.0571 85.0408 23.1927L85.646 25.099ZM87.4076 24.1662C87.935 23.7357 88.3598 23.2066 88.6832 22.5911L86.9127 21.6608C86.7077 22.051 86.4506 22.3656 86.1428 22.6169L87.4076 24.1662ZM87.7313 23.1237L92.7043 23.4561L92.8376 21.4606L87.8646 21.1282L87.7313 23.1237ZM91.8363 22.1029C91.4287 23.1745 90.8124 24.107 89.9805 24.9087L91.3683 26.3489C92.4113 25.3437 93.1927 24.1626 93.7056 22.8138L91.8363 22.1029ZM89.9839 24.9054C89.1512 25.7003 88.1387 26.331 86.9308 26.7908L87.6423 28.66C89.0765 28.1141 90.3225 27.3471 91.3648 26.3522L89.9839 24.9054ZM86.9341 26.7896C85.7508 27.2352 84.4025 27.4669 82.8761 27.4669V29.4669C84.6053 29.4669 86.1973 29.2042 87.639 28.6612L86.9341 26.7896ZM99.3643 27.1885L98.8109 28.0214L98.8172 28.0255L99.3643 27.1885ZM96.6413 23.6089L95.6932 23.9267L95.6948 23.9315L96.6413 23.6089ZM96.3729 18.3419L97.3592 18.507L97.3602 18.5008L96.3729 18.3419ZM98.4055 13.0493L99.2326 13.6114L99.234 13.6093L98.4055 13.0493ZM102.33 9.48249L102.804 10.3633L102.805 10.3624L102.33 9.48249ZM112.046 9.12454L112.511 8.2392L112.511 8.2392L112.046 9.12454ZM114.654 11.7453L115.551 11.3035L115.551 11.3035L114.654 11.7453ZM115.217 15.7083V16.7083H116.106L116.21 15.8255L115.217 15.7083ZM110.09 15.7083L109.09 15.6996L109.081 16.7083H110.09V15.7083ZM109.336 13.3433L108.572 13.9887L108.572 13.9887L109.336 13.3433ZM104.734 13.126L105.272 13.9688L105.274 13.9671L104.734 13.126ZM102.931 15.1075L102.062 14.6132L102.058 14.6197L102.931 15.1075ZM101.908 18.2652L102.895 18.4263L102.896 18.4218L101.908 18.2652ZM101.896 21.4612L102.872 21.2433L102.872 21.2433L101.896 21.4612ZM103.021 23.4683L103.66 22.6991L103.66 22.6991L103.021 23.4683ZM106.869 23.7751L106.444 22.8696L106.439 22.8722L106.869 23.7751ZM108.3 22.6629L109.065 23.307L109.071 23.3005L108.3 22.6629ZM109.246 20.8859V19.8859H108.517L108.294 20.5803L109.246 20.8859ZM114.386 20.8859L115.36 21.1116L115.644 19.8859H114.386V20.8859ZM112.481 24.849L111.705 24.2186L111.702 24.2221L112.481 24.849ZM109.042 27.5081L109.462 28.4155L109.042 27.5081ZM104.35 27.4669C102.468 27.4669 101.011 27.07 99.9114 26.3514L98.8172 28.0255C100.326 29.0115 102.193 29.4669 104.35 29.4669V27.4669ZM99.9178 26.3556C98.8131 25.6215 98.0394 24.6112 97.5879 23.2863L95.6948 23.9315C96.2831 25.6577 97.3247 27.0338 98.8109 28.0213L99.9178 26.3556ZM97.5895 23.2911C97.1417 21.9552 97.0471 20.371 97.3591 18.507L95.3866 18.1768C95.0338 20.2844 95.1182 22.2115 95.6932 23.9267L97.5895 23.2911ZM97.3602 18.5008C97.6633 16.6179 98.2923 14.9946 99.2326 13.6114L97.5785 12.4871C96.4563 14.138 95.7301 16.0431 95.3856 18.1829L97.3602 18.5008ZM99.234 13.6093C100.177 12.2145 101.364 11.1371 102.804 10.3633L101.857 8.60172C100.126 9.53243 98.6968 10.8328 97.5771 12.4892L99.234 13.6093ZM102.805 10.3624C104.24 9.58783 105.863 9.1913 107.7 9.1913V7.1913C105.564 7.1913 103.609 7.65557 101.855 8.60262L102.805 10.3624ZM107.7 9.1913C109.295 9.1913 110.575 9.48118 111.581 10.0099L112.511 8.2392C111.148 7.52357 109.53 7.1913 107.7 7.1913V9.1913ZM111.581 10.0099C112.592 10.5406 113.303 11.265 113.757 12.187L115.551 11.3035C114.897 9.97557 113.87 8.95276 112.511 8.2392L111.581 10.0099ZM113.757 12.187C114.209 13.1044 114.385 14.2237 114.224 15.5912L116.21 15.8255C116.406 14.1589 116.207 12.6361 115.551 11.3035L113.757 12.187ZM115.217 14.7083H110.09V16.7083H115.217V14.7083ZM111.09 15.7171C111.1 14.5625 110.798 13.5246 110.1 12.6978L108.572 13.9887C108.896 14.3722 109.097 14.911 109.09 15.6996L111.09 15.7171ZM110.1 12.6978C109.353 11.8136 108.29 11.4356 107.086 11.4356V13.4356C107.859 13.4356 108.297 13.6627 108.572 13.9887L110.1 12.6978ZM107.086 11.4356C106.042 11.4356 105.07 11.7207 104.193 12.2848L105.274 13.9671C105.829 13.6108 106.425 13.4356 107.086 13.4356V11.4356ZM104.195 12.2831C103.327 12.8377 102.621 13.6295 102.062 14.6132L103.8 15.6018C104.23 14.8469 104.725 14.3177 105.272 13.9688L104.195 12.2831ZM102.058 14.6197C101.502 15.6143 101.131 16.785 100.921 18.1085L102.896 18.4218C103.078 17.2737 103.388 16.3393 103.804 15.5953L102.058 14.6197ZM100.921 18.104C100.704 19.4349 100.687 20.6369 100.92 21.6791L102.872 21.2433C102.712 20.5298 102.704 19.6011 102.895 18.4263L100.921 18.104ZM100.92 21.6791C101.152 22.7182 101.619 23.6037 102.382 24.2375L103.66 22.6991C103.315 22.4124 103.032 21.9599 102.872 21.2433L100.92 21.6791ZM102.382 24.2375C103.145 24.8717 104.082 25.1586 105.117 25.1586V23.1586C104.465 23.1586 104.004 22.9853 103.66 22.6991L102.382 24.2375ZM105.117 25.1586C105.887 25.1586 106.619 25.0014 107.299 24.678L106.439 22.8722C106.044 23.0601 105.608 23.1586 105.117 23.1586V25.1586ZM107.293 24.6806C107.977 24.3601 108.568 23.8974 109.065 23.307L107.536 22.0188C107.214 22.4 106.851 22.6787 106.444 22.8696L107.293 24.6806ZM109.071 23.3005C109.571 22.6961 109.943 21.9874 110.199 21.1915L108.294 20.5803C108.107 21.1651 107.848 21.641 107.53 22.0253L109.071 23.3005ZM109.246 21.8859H114.386V19.8859H109.246V21.8859ZM113.411 20.6602C113.094 22.0297 112.523 23.2103 111.705 24.2186L113.257 25.4793C114.279 24.2206 114.978 22.7591 115.36 21.1116L113.411 20.6602ZM111.702 24.2221C110.891 25.2302 109.869 26.023 108.622 26.6006L109.462 28.4155C110.976 27.7147 112.247 26.7348 113.26 25.4758L111.702 24.2221ZM108.622 26.6006C107.391 27.1704 105.974 27.4669 104.35 27.4669V29.4669C106.221 29.4669 107.931 29.1241 109.462 28.4155L108.622 26.6006ZM130.375 8.44698L131.362 8.61038L131.555 7.44698H130.375V8.44698ZM129.698 12.5379V13.5379H130.546L130.684 12.7013L129.698 12.5379ZM117.86 12.5379L116.874 12.3715L116.677 13.5379H117.86V12.5379ZM118.55 8.44698V7.44698H117.705L117.564 8.28058L118.55 8.44698ZM122.002 3.74243V2.74243H121.154L121.015 3.57933L122.002 3.74243ZM127.448 3.74243L128.434 3.90639L128.628 2.74243H127.448V3.74243ZM124.405 22.0493L125.391 22.2164L125.392 22.2132L124.405 22.0493ZM124.444 23.2254L123.513 23.5919L123.517 23.6018L124.444 23.2254ZM124.993 23.8007L124.596 24.7183L124.607 24.7229L124.993 23.8007ZM126.719 23.9029L126.878 24.8902L126.894 24.8877L126.909 24.8847L126.719 23.9029ZM127.32 23.7879L128.319 23.7375L128.261 22.594L127.136 22.805L127.32 23.7879ZM127.525 27.8404L127.817 28.7968L128.563 28.5689L128.523 27.79L127.525 27.8404ZM126.284 28.1473L126.076 27.1692L126.073 27.1699L126.284 28.1473ZM124.469 28.3518L124.433 27.3525L124.431 27.3525L124.469 28.3518ZM121.094 27.8277L120.688 28.7415L120.695 28.7446L121.094 27.8277ZM119.113 25.9484L120.016 25.5195L120.016 25.5195L119.113 25.9484ZM118.857 22.7652L119.841 22.9423L119.842 22.9353L119.843 22.9283L118.857 22.7652ZM129.389 8.28358L128.711 12.3745L130.684 12.7013L131.362 8.61038L129.389 8.28358ZM129.698 11.5379H117.86V13.5379H129.698V11.5379ZM118.846 12.7043L119.536 8.61338L117.564 8.28058L116.874 12.3715L118.846 12.7043ZM118.55 9.44698H130.375V7.44698H118.55V9.44698ZM122.002 4.74243H127.448V2.74243H122.002V4.74243ZM126.461 3.57848L123.419 21.8853L125.392 22.2132L128.434 3.90639L126.461 3.57848ZM123.419 21.8821C123.322 22.4553 123.304 23.0614 123.513 23.5919L125.374 22.8589C125.361 22.8269 125.318 22.6489 125.391 22.2164L123.419 21.8821ZM123.517 23.6018C123.72 24.102 124.085 24.4969 124.596 24.7182L125.391 22.8831C125.384 22.8801 125.382 22.8784 125.383 22.8791C125.384 22.8798 125.385 22.8812 125.387 22.8829C125.389 22.8845 125.388 22.8841 125.385 22.8799C125.382 22.8755 125.377 22.8659 125.37 22.849L123.517 23.6018ZM124.607 24.7229C125.022 24.8972 125.476 24.9669 125.939 24.9669V22.9669C125.67 22.9669 125.493 22.9258 125.38 22.8785L124.607 24.7229ZM125.939 24.9669C126.251 24.9669 126.564 24.9409 126.878 24.8902L126.56 22.9157C126.346 22.9502 126.139 22.9669 125.939 22.9669V24.9669ZM126.909 24.8847C127.173 24.8337 127.371 24.7958 127.504 24.7708L127.136 22.805C126.996 22.8311 126.794 22.8699 126.529 22.9212L126.909 24.8847ZM126.321 23.8383L126.526 27.8909L128.523 27.79L128.319 23.7375L126.321 23.8383ZM127.232 26.8841C126.965 26.9658 126.583 27.0611 126.076 27.1692L126.493 29.1253C127.025 29.0118 127.47 28.9026 127.817 28.7968L127.232 26.8841ZM126.073 27.1699C125.634 27.2649 125.091 27.3284 124.433 27.3525L124.506 29.3511C125.245 29.3241 125.912 29.2512 126.496 29.1246L126.073 27.1699ZM124.431 27.3525C123.205 27.3997 122.239 27.2351 121.493 26.9107L120.695 28.7446C121.791 29.2213 123.075 29.4062 124.508 29.3511L124.431 27.3525ZM121.5 26.9139C120.78 26.5936 120.306 26.1298 120.016 25.5195L118.209 26.3773C118.721 27.4545 119.568 28.2436 120.688 28.7415L121.5 26.9139ZM120.016 25.5195C119.734 24.9253 119.634 24.0934 119.841 22.9423L117.873 22.588C117.62 23.9938 117.69 25.284 118.209 26.3773L120.016 25.5195ZM119.843 22.9283L122.988 3.90554L121.015 3.57933L117.87 22.6021L119.843 22.9283ZM131.174 28.0833L130.188 27.9196L129.995 29.0833H131.174V28.0833ZM135.521 1.90152V0.901525H134.673L134.534 1.73775L135.521 1.90152ZM152.856 1.90152L153.842 2.06727L154.038 0.901525H152.856V1.90152ZM152.089 6.46544V7.46544H152.935L153.075 6.63119L152.089 6.46544ZM140.289 6.46544V5.46544H139.44L139.303 6.30367L140.289 6.46544ZM139.267 12.7041L138.28 12.5423L138.089 13.7041H139.267V12.7041ZM149.916 12.7041L150.902 12.8698L151.098 11.7041H149.916V12.7041ZM149.149 17.268V18.268H149.995L150.135 17.4337L149.149 17.268ZM138.5 17.268V16.268H137.652L137.513 17.1047L138.5 17.268ZM136.71 28.0833V29.0833H137.558L137.696 28.2466L136.71 28.0833ZM132.161 28.2471L136.507 2.0653L134.534 1.73775L130.188 27.9196L132.161 28.2471ZM135.521 2.90152H152.856V0.901525H135.521V2.90152ZM151.87 1.73578L151.103 6.2997L153.075 6.63119L153.842 2.06727L151.87 1.73578ZM152.089 5.46544H140.289V7.46544H152.089V5.46544ZM139.303 6.30367L138.28 12.5423L140.254 12.8659L141.276 6.62722L139.303 6.30367ZM139.267 13.7041H149.916V11.7041H139.267V13.7041ZM148.93 12.5383L148.163 17.1023L150.135 17.4337L150.902 12.8698L148.93 12.5383ZM149.149 16.268H138.5V18.268H149.149V16.268ZM137.513 17.1047L135.723 27.9201L137.696 28.2466L139.486 17.4313L137.513 17.1047ZM136.71 27.0833H131.174V29.0833H136.71V27.0833ZM152.131 28.0833L151.144 27.9189L150.95 29.0833H152.131V28.0833ZM155.403 8.44698V7.44698H154.556L154.417 8.28258L155.403 8.44698ZM160.849 8.44698L161.836 8.61138L162.03 7.44698H160.849V8.44698ZM157.577 28.0833V29.0833H158.424L158.563 28.2477L157.577 28.0833ZM156.682 5.08476L155.958 5.7747L155.963 5.78049L155.969 5.78619L156.682 5.08476ZM156.043 3.14158L157.035 3.26562L157.035 3.2629L156.043 3.14158ZM157.142 1.1984L157.779 1.96917L157.785 1.9641L157.142 1.1984ZM161.297 1.1984L160.573 1.88808L160.578 1.89382L161.297 1.1984ZM161.936 3.14158L162.93 3.25449L162.93 3.25201L161.936 3.14158ZM160.849 5.08476L161.498 5.8462L161.499 5.84545L160.849 5.08476ZM153.117 28.2477L156.39 8.61138L154.417 8.28258L151.144 27.9189L153.117 28.2477ZM155.403 9.44698H160.849V7.44698H155.403V9.44698ZM159.863 8.28258L156.59 27.9189L158.563 28.2477L161.836 8.61138L159.863 8.28258ZM157.577 27.0833H152.131V29.0833H157.577V27.0833ZM158.689 4.89016C158.125 4.89016 157.72 4.71399 157.395 4.38334L155.969 5.78619C156.7 6.5294 157.633 6.89016 158.689 6.89016V4.89016ZM157.406 4.39483C157.094 4.06743 156.978 3.71882 157.035 3.26562L155.05 3.01755C154.919 4.06434 155.23 5.01118 155.958 5.7747L157.406 4.39483ZM157.035 3.2629C157.096 2.76953 157.321 2.34762 157.779 1.96914L156.505 0.427657C155.684 1.106 155.177 1.97954 155.05 3.02026L157.035 3.2629ZM157.785 1.9641C158.25 1.57338 158.749 1.393 159.315 1.393V-0.606999C158.263 -0.606999 157.312 -0.25045 156.499 0.432695L157.785 1.9641ZM159.315 1.393C159.879 1.393 160.269 1.56865 160.573 1.88805L162.021 0.508745C161.302 -0.245718 160.371 -0.606999 159.315 -0.606999V1.393ZM160.578 1.89382C160.871 2.19616 160.996 2.54346 160.942 3.03115L162.93 3.25201C163.046 2.20561 162.746 1.25746 162.015 0.502978L160.578 1.89382ZM160.942 3.02867C160.889 3.49762 160.67 3.92292 160.2 4.32408L161.499 5.84545C162.307 5.15569 162.813 4.28554 162.93 3.25449L160.942 3.02867ZM160.201 4.32333C159.747 4.71014 159.255 4.89016 158.689 4.89016V6.89016C159.742 6.89016 160.691 6.53325 161.498 5.8462L160.201 4.32333ZM175.657 8.44698L176.643 8.61038L176.836 7.44698H175.657V8.44698ZM174.979 12.5379V13.5379H175.827L175.966 12.7013L174.979 12.5379ZM163.141 12.5379L162.155 12.3715L161.958 13.5379H163.141V12.5379ZM163.831 8.44698V7.44698H162.986L162.845 8.28058L163.831 8.44698ZM167.283 3.74243V2.74243H166.435L166.296 3.57933L167.283 3.74243ZM172.729 3.74243L173.716 3.90639L173.909 2.74243H172.729V3.74243ZM169.686 22.0493L170.672 22.2164L170.673 22.2132L169.686 22.0493ZM169.725 23.2254L168.794 23.5919L168.798 23.6018L169.725 23.2254ZM170.275 23.8007L169.877 24.7183L169.888 24.7229L170.275 23.8007ZM172 23.9029L172.16 24.8902L172.175 24.8877L172.19 24.8847L172 23.9029ZM172.601 23.7879L173.6 23.7375L173.542 22.594L172.417 22.805L172.601 23.7879ZM172.806 27.8404L173.098 28.7968L173.844 28.5689L173.804 27.79L172.806 27.8404ZM171.566 28.1473L171.357 27.1692L171.354 27.1699L171.566 28.1473ZM169.75 28.3518L169.714 27.3525L169.712 27.3525L169.75 28.3518ZM166.375 27.8277L165.969 28.7415L165.976 28.7446L166.375 27.8277ZM164.394 25.9484L165.297 25.5195L165.297 25.5195L164.394 25.9484ZM164.138 22.7652L165.122 22.9423L165.124 22.9353L165.125 22.9283L164.138 22.7652ZM174.67 8.28358L173.992 12.3745L175.966 12.7013L176.643 8.61038L174.67 8.28358ZM174.979 11.5379H163.141V13.5379H174.979V11.5379ZM164.127 12.7043L164.817 8.61338L162.845 8.28058L162.155 12.3715L164.127 12.7043ZM163.831 9.44698H175.657V7.44698H163.831V9.44698ZM167.283 4.74243H172.729V2.74243H167.283V4.74243ZM171.743 3.57848L168.7 21.8853L170.673 22.2132L173.716 3.90639L171.743 3.57848ZM168.7 21.8821C168.603 22.4553 168.585 23.0614 168.794 23.5919L170.655 22.8589C170.643 22.8269 170.599 22.6489 170.672 22.2164L168.7 21.8821ZM168.798 23.6018C169.002 24.102 169.366 24.4969 169.877 24.7182L170.672 22.8831C170.665 22.8801 170.663 22.8784 170.664 22.8791C170.665 22.8798 170.667 22.8812 170.668 22.8829C170.67 22.8845 170.669 22.8841 170.666 22.8799C170.664 22.8755 170.658 22.8659 170.651 22.849L168.798 23.6018ZM169.888 24.7229C170.303 24.8972 170.757 24.9669 171.221 24.9669V22.9669C170.951 22.9669 170.774 22.9258 170.661 22.8785L169.888 24.7229ZM171.221 24.9669C171.532 24.9669 171.845 24.9409 172.16 24.8902L171.841 22.9157C171.627 22.9502 171.42 22.9669 171.221 22.9669V24.9669ZM172.19 24.8847C172.454 24.8337 172.652 24.7958 172.785 24.7708L172.417 22.805C172.278 22.8311 172.075 22.8699 171.81 22.9212L172.19 24.8847ZM171.602 23.8383L171.807 27.8909L173.804 27.79L173.6 23.7375L171.602 23.8383ZM172.514 26.8841C172.246 26.9658 171.865 27.0611 171.357 27.1692L171.774 29.1253C172.307 29.0118 172.752 28.9026 173.098 28.7968L172.514 26.8841ZM171.354 27.1699C170.916 27.2649 170.372 27.3284 169.714 27.3525L169.787 29.3511C170.526 29.3241 171.193 29.2512 171.777 29.1246L171.354 27.1699ZM169.712 27.3525C168.486 27.3997 167.52 27.2351 166.774 26.9107L165.976 28.7446C167.072 29.2213 168.356 29.4062 169.789 29.3511L169.712 27.3525ZM166.781 26.9139C166.061 26.5936 165.587 26.1298 165.297 25.5195L163.49 26.3773C164.002 27.4545 164.849 28.2436 165.969 28.7415L166.781 26.9139ZM165.297 25.5195C165.015 24.9253 164.915 24.0934 165.122 22.9423L163.154 22.588C162.901 23.9938 162.971 25.284 163.49 26.3773L165.297 25.5195ZM165.125 22.9283L168.27 3.90554L166.296 3.57933L163.152 22.6021L165.125 22.9283Z" fill="black" fill-opacity="0.3" mask="url(#path-1-inside-1_97_30)"/>
</g>
<defs>
<filter id="filter0_d_97_30" x="-3.36084" y="0.393005" width="183.017" height="36.0739" filterUnits="userSpaceOnUse" color-interpolation-filters="sRGB">
<feFlood flood-opacity="0" result="BackgroundImageFix"/>
<feColorMatrix in="SourceAlpha" type="matrix" values="0 0 0 0 0 0 0 0 0 0 0 0 0 0 0 0 0 0 127 0" result="hardAlpha"/>
<feOffset dy="4"/>
<feGaussianBlur stdDeviation="2"/>
<feComposite in2="hardAlpha" operator="out"/>
<feColorMatrix type="matrix" values="0 0 0 0 0 0 0 0 0 0 0 0 0 0 0 0 0 0 0.25 0"/>
<feBlend mode="normal" in2="BackgroundImageFix" result="effect1_dropShadow_97_30"/>
<feBlend mode="normal" in="SourceGraphic" in2="effect1_dropShadow_97_30" result="shape"/>
</filter>
</defs>
</svg>
